# xmcd
#
# Track frame offsets:
#	150
#	21280
#	38236
#	51032
#	69204
#	93184
#	112289
#	128576
#	149955
#	176834
#	202764
#
# Disc length: 3011 seconds
#
# Revision: 0
# Processed by: cddbd v1.4PL0 Copyright (c) Steve Scherf et al.
# Submitted via: EasyCDDAExtractor 4.5.0.2
#
DISCID=9c0bc10b
DTITLE=The Kelly Richey Band - Dig A Little Deeper
DYEAR=1999
DGENRE=Blues
TTITLE0=It's Rainin In My Head
TTITLE1=Cracked and Bent
TTITLE2=Is Anybody Listening
TTITLE3=Can't Stop Me From Cryin
TTITLE4=Ripped and Torn
TTITLE5=Don't Bring Me Down
TTITLE6=Playhouse
TTITLE7=Dig A Little Deeper
TTITLE8=One Chance To Love Me
TTITLE9=It Was A Good Time
TTITLE10=Hey Joe
EXTD=
EXTT0=
EXTT1=
EXTT2=
EXTT3=
EXTT4=
EXTT5=
EXTT6=
EXTT7=
EXTT8=
EXTT9=
EXTT10=
PLAYORDER=
